<svg xmlns="http://www.w3.org/2000/svg" width="33.064" height="34.208" viewBox="0 0 33.064 34.208">
  <path id="Контур_8" data-name="Контур 8" d="M21.959,1.317a1.574,1.574,0,0,1,3.105,0V7.084a1.574,1.574,0,0,1-3.105,0V1.317ZM17.789,28.9c-.091,0-.164-.4-.164-.891s.073-.891.164-.891h4.249c.091,0,.164.4.164.891s-.073.891-.164.891ZM4.265,18.676c-.091,0-.164-.4-.164-.891s.073-.891.164-.891H8.514c.091,0,.164.4.164.891s-.073.891-.164.891Zm6.762,0c-.091,0-.164-.4-.164-.891s.073-.891.164-.891h4.249c.091,0,.164.4.164.891s-.073.891-.164.891Zm6.762,0c-.091,0-.164-.4-.164-.891s.073-.891.164-.891h4.249c.091,0,.164.4.164.891s-.073.891-.164.891Zm6.765,0c-.091,0-.164-.4-.164-.891s.073-.891.164-.891H28.8c.091,0,.164.4.164.891s-.073.891-.164.891ZM4.265,23.786c-.091,0-.164-.4-.164-.891S4.173,22,4.265,22H8.514c.091,0,.164.4.164.891s-.073.891-.164.891Zm6.762,0c-.091,0-.164-.4-.164-.891s.073-.891.164-.891h4.249c.091,0,.164.4.164.891s-.073.891-.164.891Zm6.762,0c-.091,0-.164-.4-.164-.891S17.7,22,17.789,22h4.249c.091,0,.164.4.164.891s-.073.891-.164.891Zm6.765,0c-.091,0-.164-.4-.164-.891s.073-.891.164-.891H28.8c.091,0,.164.4.164.891s-.073.891-.164.891ZM4.265,28.9c-.091,0-.164-.4-.164-.891s.073-.891.164-.891H8.514c.091,0,.164.4.164.891s-.073.891-.164.891Zm6.762,0c-.091,0-.164-.4-.164-.891s.073-.891.164-.891h4.249c.091,0,.164.4.164.891s-.073.891-.164.891ZM7.967,1.317A1.449,1.449,0,0,1,9.52,0a1.449,1.449,0,0,1,1.553,1.317V7.084A1.449,1.449,0,0,1,9.52,8.4,1.449,1.449,0,0,1,7.967,7.084V1.317Zm-6.245,11.3H31.339V5.977a.836.836,0,0,0-.231-.576.772.772,0,0,0-.557-.239H27.715a.891.891,0,0,1,0-1.782h2.839a2.461,2.461,0,0,1,1.773.763,2.633,2.633,0,0,1,.737,1.834V31.611a2.633,2.633,0,0,1-.737,1.834,2.461,2.461,0,0,1-1.773.763H2.51a2.461,2.461,0,0,1-1.773-.763A2.645,2.645,0,0,1,0,31.608V5.977A2.633,2.633,0,0,1,.737,4.142,2.461,2.461,0,0,1,2.51,3.379H5.543a.891.891,0,0,1,0,1.782H2.51a.781.781,0,0,0-.557.239.826.826,0,0,0-.231.576v6.639ZM31.342,14.4H1.722V31.608a.836.836,0,0,0,.231.576.772.772,0,0,0,.557.239H30.553a.781.781,0,0,0,.557-.239.826.826,0,0,0,.231-.576V14.4ZM13.569,5.161a.891.891,0,0,1,0-1.782h5.782a.891.891,0,0,1,0,1.782Z" fill="#9d00cb"/>
</svg>
