<svg xmlns="http://www.w3.org/2000/svg" width="33.139" height="33.504" viewBox="0 0 33.139 33.504">
  <path id="Контур_959" data-name="Контур 959" d="M22.009,1.29A1.442,1.442,0,0,1,23.565,0a1.442,1.442,0,0,1,1.556,1.29V6.939a1.442,1.442,0,0,1-1.556,1.29,1.442,1.442,0,0,1-1.556-1.29V1.29Zm-.984,20.728a.905.905,0,0,1,0,1.81l-3.492-.011-.011,3.525a.9.9,0,1,1-1.791,0l.011-3.528L12.254,23.8a.905.905,0,0,1,0-1.81l3.49.011.011-3.525a.9.9,0,1,1,1.791,0l-.011,3.531,3.49.011ZM7.985,1.29A1.442,1.442,0,0,1,9.541,0,1.442,1.442,0,0,1,11.1,1.29V6.939a1.442,1.442,0,0,1-1.556,1.29,1.442,1.442,0,0,1-1.556-1.29V1.29ZM1.726,12.356H31.413v-6.5a.809.809,0,0,0-.232-.564.782.782,0,0,0-.558-.234H27.778a.872.872,0,0,1,0-1.745h2.845a2.494,2.494,0,0,1,1.777.747,2.549,2.549,0,0,1,.739,1.8V30.96a2.549,2.549,0,0,1-.739,1.8,2.494,2.494,0,0,1-1.777.747H2.516a2.494,2.494,0,0,1-1.777-.747A2.56,2.56,0,0,1,0,30.958V5.853a2.549,2.549,0,0,1,.739-1.8A2.494,2.494,0,0,1,2.516,3.31H5.556a.872.872,0,0,1,0,1.745H2.516a.8.8,0,0,0-.79.8v6.5ZM31.413,14.1H1.726V30.958a.809.809,0,0,0,.232.564.782.782,0,0,0,.558.234H30.623a.8.8,0,0,0,.79-.8V14.1ZM13.6,5.055a.872.872,0,0,1,0-1.745h5.8a.872.872,0,0,1,0,1.745Z" transform="translate(0 0)" fill="#fb0"/>
</svg>
