<svg xmlns="http://www.w3.org/2000/svg" width="40.274" height="28.987" viewBox="0 0 40.274 28.987">
  <path id="Контур_7" data-name="Контур 7" d="M19.044,12.442v-2.13c.1-.387.272-.587.472-.623.695-.121.58,2.605-.472,2.753Zm6.617-1.458c1.488,1.6,3.788-.495,6.03-1.081,1.272-.334,1.957,1.924,3.6,1.1l.154,1.786c1.019-.233.295,2.917-.59,2.753a6.936,6.936,0,0,1-.878,2.281A4.454,4.454,0,0,1,30.482,19.6a4.73,4.73,0,0,1-3.372-1.724,7.235,7.235,0,0,1-1.065-2.461c-.944.282-1.576-2.913-.551-2.641l.167-1.789ZM32.123,6v.393a.332.332,0,0,1-.331.331h-.669v.669a.332.332,0,0,1-.331.331H30.4a.332.332,0,0,1-.331-.331V6.719H29.4a.332.332,0,0,1-.331-.331V6a.332.332,0,0,1,.331-.331h.669V5a.332.332,0,0,1,.331-.331h.393A.332.332,0,0,1,31.124,5v.669h.665A.331.331,0,0,1,32.123,6ZM28.217,3.2h4.749a1.948,1.948,0,0,1,.5.069,2.113,2.113,0,0,1,.97.554,1.576,1.576,0,0,1,.478,1.1,1.491,1.491,0,0,1-.049.367l-.442,1.694a4.581,4.581,0,0,1,.383.475C37.429,11.183,38.3,17.885,34,18.754a3.272,3.272,0,0,0,1.993.39,4.087,4.087,0,0,1,4.283,3.12v4.719c0,.564-.338.95-1.144,1.085H31.37l1.914-9.183a4.84,4.84,0,0,1-.767.482,4.423,4.423,0,0,1-2.045.5,4.61,4.61,0,0,1-1.95-.528,5.269,5.269,0,0,1-.862-.554l-.079-.016,1.934,9.294H27.676c-.295-3.625.528-5.548-1.485-9.029a1.8,1.8,0,0,0,.849-.39c-2.215-.547-3.153-1.331-3.153-4.5V13.064a10.141,10.141,0,0,1,2.012-6,3.567,3.567,0,0,1,.714-.633l-.3-1.14a1.491,1.491,0,0,1-.049-.367,1.576,1.576,0,0,1,.478-1.1,2.113,2.113,0,0,1,.97-.554,1.905,1.905,0,0,1,.5-.069Zm0,.669h4.749c.691,0,1.429.587,1.255,1.255l-.354,1.35-.236.908c-.174.669-.567,1.255-1.255,1.255H28.807c-.688,0-1.081-.587-1.255-1.255l-.341-1.3-.249-.957c-.174-.669.564-1.258,1.255-1.258Zm6.02,20.306h2.517v.6H34.237v-.6Zm-4.083,3.893-1.281-5.1a7.666,7.666,0,0,0,3.185,0l-1.222,5.1Zm-.213-12.322a.161.161,0,0,1-.01-.216.143.143,0,0,1,.206-.01.429.429,0,0,0,.3.147.477.477,0,0,0,.308-.151.14.14,0,0,1,.206.016.158.158,0,0,1-.016.216.752.752,0,0,1-.5.226.7.7,0,0,1-.5-.229Zm3.828-2.959a.158.158,0,0,1,.02.216.141.141,0,0,1-.206.02c-.279-.243-.829-.138-1.3-.049a3.36,3.36,0,0,1-.659.085.154.154,0,0,1,.01-.308,3.142,3.142,0,0,0,.6-.079c.537-.1,1.163-.22,1.544.115ZM28.686,14.12a.423.423,0,0,1,.023.131.358.358,0,1,1-.714,0,.386.386,0,0,1,.056-.2,1.862,1.862,0,0,0-.593.141.127.127,0,0,1-.167-.1.166.166,0,0,1,.082-.2,1.992,1.992,0,0,1,.8-.157,2.266,2.266,0,0,1,.8.157.166.166,0,0,1,.085.2.13.13,0,0,1-.164.1,1.31,1.31,0,0,0-.206-.075Zm3.53-.033a.376.376,0,0,0-.02.121.357.357,0,1,0,.669-.18,2.279,2.279,0,0,1,.59.121.133.133,0,0,0,.164-.108.165.165,0,0,0-.092-.2,2.458,2.458,0,0,0-.8-.138,2.372,2.372,0,0,0-.79.138.165.165,0,0,0-.088.2.13.13,0,0,0,.164.108,2.084,2.084,0,0,1,.2-.062Zm-4.9-1.029a.141.141,0,0,1-.206-.02.158.158,0,0,1,.02-.216c.383-.334,1.006-.216,1.54-.115a3.142,3.142,0,0,0,.6.079.148.148,0,0,1,.151.147.151.151,0,0,1-.141.161,3.1,3.1,0,0,1-.655-.085c-.472-.088-1.023-.193-1.3.049Zm1.858,3.952a.162.162,0,0,1-.023-.216.143.143,0,0,1,.206-.023,1.8,1.8,0,0,0,1.131.5,1.4,1.4,0,0,0,1-.495.14.14,0,0,1,.206,0,.157.157,0,0,1,0,.216,1.67,1.67,0,0,1-1.2.58,2.049,2.049,0,0,1-1.314-.57ZM6.256,24.617a.826.826,0,1,1-.826.826.827.827,0,0,1,.826-.826ZM9.55,9.263a.168.168,0,0,1-.216-.115.19.19,0,0,1,.1-.236,2.94,2.94,0,0,1,1.032-.187,3.246,3.246,0,0,1,1.029.184.191.191,0,0,1,.111.233.169.169,0,0,1-.213.121,3.332,3.332,0,0,0-.341-.1.492.492,0,0,1,.016.121.476.476,0,0,1-.95,0,.433.433,0,0,1,.036-.174,2.44,2.44,0,0,0-.61.151Zm5.535-.138c-.02.049-.036.007-.036.164a.545.545,0,0,0,.475.456A.465.465,0,0,0,16,9.289a.433.433,0,0,0-.049-.2,3.362,3.362,0,0,1,.629.131.167.167,0,0,0,.21-.128.188.188,0,0,0-.118-.229,3.346,3.346,0,0,0-2.048,0,.189.189,0,0,0-.115.229.166.166,0,0,0,.21.125c.125-.036.249-.066.367-.088ZM13.063,27.789,9.229,16.466l1.16,1.088h0a.188.188,0,0,0,.026.023,2.494,2.494,0,0,0,.531.321,2.8,2.8,0,0,0,.567.184,10.576,10.576,0,0,0,1.8.125,6.665,6.665,0,0,0,1.557-.131,2.545,2.545,0,0,0,.587-.265,3.129,3.129,0,0,0,.531-.423l.878-.816-3.8,11.218ZM9.127,16.374a3.835,3.835,0,0,1-3.34,1.2,8.7,8.7,0,0,0-1.036.088,7.157,7.157,0,0,0-.318,3.192,6.011,6.011,0,0,0,1.042,2.6,2.1,2.1,0,0,1,.777-.147,2.136,2.136,0,1,1-1.429.551,6.744,6.744,0,0,1-1.15-2.9,7.753,7.753,0,0,1,.226-3.12C-1.213,19.281.17,24.62.17,28.969H25.956c0-4.31,1.354-9.766-3.811-11.149a3.9,3.9,0,0,1,.085.767,4.256,4.256,0,0,1-.108,1.039c.121.043.236.088.351.138a3.008,3.008,0,0,1,.633.374,2.4,2.4,0,0,1,.947,1.7A6.275,6.275,0,0,1,23.9,23.65l0,.01-.056.311a4.417,4.417,0,0,1-.967,2.478,1.863,1.863,0,0,1-.8.485l-.115.029a.857.857,0,1,1,.023-.813,1.156,1.156,0,0,0,.344-.243,3.941,3.941,0,0,0,.754-2.068c.013-.082.029-.161.056-.321l0-.013a5.576,5.576,0,0,0,.144-1.593,1.663,1.663,0,0,0-.659-1.18,2.2,2.2,0,0,0-.472-.275,4.931,4.931,0,0,0-.613-.216h0c-.007,0-.013,0-.02-.007a.4.4,0,0,1-.1-.056.474.474,0,0,1-.118,0,3.637,3.637,0,0,0-.809-.062,2.284,2.284,0,0,0-.665.115c-.993.357-1.206,1.354-1.416,2.327l0,.013c-.016.072-.033.151-.066.292-.043.184-.085.344-.125.5a2.789,2.789,0,0,0-.1,1.645,2.573,2.573,0,0,0,.154.4.856.856,0,1,1-.108,1.013,1.193,1.193,0,0,1-.259-.21,2.36,2.36,0,0,1-.518-.973,3.379,3.379,0,0,1,.088-2.065c.043-.157.085-.318.118-.472.01-.049.036-.164.062-.288,0-.007,0-.01,0-.016.256-1.177.515-2.383,1.907-2.884a3.045,3.045,0,0,1,.895-.161,4.172,4.172,0,0,1,.918.062,3.381,3.381,0,0,0,.079-.816,2.836,2.836,0,0,0-.164-.947,8.956,8.956,0,0,0-.964-.079,3.853,3.853,0,0,1-3.3-1.157l.085-.082c.118-.111.246-.223.364-.331.967-.872,1.589-1.432,1.517-3.074v-.118a.312.312,0,0,0,.1,0c.731-.1,1.124-.96,1.219-1.78a3.343,3.343,0,0,0,.013-.649A1.825,1.825,0,0,0,20.2,9.8a.67.67,0,0,0-.675-.492l.4-.236c.046-.613.2-1.445.315-2.229A5.745,5.745,0,0,0,20.3,5.8a4.191,4.191,0,0,0-.967-3.752A8.368,8.368,0,0,0,13.05-.015,6.8,6.8,0,0,0,7.934,1.8C6.7,1.623,5.948,2.243,5.751,3.79V5.084c.046.8.3,1.088.626,1.026.01.138.02.275.043.416.131.882.341,1.835.423,2.612l.3.161v.285a.819.819,0,0,0-.465-.262.666.666,0,0,0-.76.478,2.053,2.053,0,0,0-.128.574,3.338,3.338,0,0,0,.013.649c.1.819.488,1.678,1.219,1.78a.376.376,0,0,0,.121,0v.7h0a.585.585,0,0,0,.007.075,3.162,3.162,0,0,0,1.278,2.147c.121.108.256.229.39.354l.311.295ZM18.6,7.588c-3.73-2.556-6.024-4.673-9.13-2.789-1.1.672-1.449,2.045-1.953,2.812v5.9c.295,1.35.655,1.465,1.56,2.31l1.567,1.468a2.344,2.344,0,0,0,.941.433,10.836,10.836,0,0,0,3.156,0,2.282,2.282,0,0,0,.957-.6l1.137-1.059c1.1-1.023,1.845-1.462,1.766-3.153V7.588Zm-7.561-.334a.261.261,0,1,1,.023.521A2.821,2.821,0,0,0,10,8.011a1.892,1.892,0,0,0-.711.567.277.277,0,0,1-.38.052.253.253,0,0,1-.056-.364,2.389,2.389,0,0,1,.911-.724,3.263,3.263,0,0,1,1.278-.288Zm4.274.465a.259.259,0,1,1,0-.518,2.979,2.979,0,0,1,1.226.249,2.638,2.638,0,0,1,.973.76.252.252,0,0,1-.049.364.28.28,0,0,1-.38-.046,2.092,2.092,0,0,0-.773-.606,2.411,2.411,0,0,0-1-.2ZM12.47,12.294a.2.2,0,0,1-.026-.3.229.229,0,0,1,.311-.026.455.455,0,0,0,.652,0,.226.226,0,0,1,.311.029.207.207,0,0,1-.029.3.963.963,0,0,1-.619.233.984.984,0,0,1-.6-.236Zm-.695,2.8a.216.216,0,0,1-.1-.3.236.236,0,0,1,.315-.092,2.306,2.306,0,0,0,1.059.275A2.176,2.176,0,0,0,14.1,14.7a.237.237,0,0,1,.315.088.217.217,0,0,1-.092.3,2.686,2.686,0,0,1-1.265.328,2.761,2.761,0,0,1-1.278-.324ZM7.082,12.442v-2.13c-.1-.387-.272-.587-.472-.623-.695-.121-.583,2.605.472,2.753Zm5.6,12.4-1.5-6.109a8.035,8.035,0,0,0,3.828,0l-1.429,6.109Z" transform="translate(0 0.018)" fill="#50c900" fill-rule="evenodd"/>
</svg>
