<svg xmlns="http://www.w3.org/2000/svg" width="30.1" height="32.397" viewBox="0 0 30.1 32.397">
  <path id="Контур_5" data-name="Контур 5" d="M0,28.476H4.445V.116c0-.261.214,0,.475,0H25.181c.261,0,.475-.261.475,0v28.36H30.1V32.4H0v-3.92Zm13.572-13h3.069a.169.169,0,0,1,.169.166v3.733a.17.17,0,0,1-.169.169H13.572a.17.17,0,0,1-.169-.169V15.647a.166.166,0,0,1,.169-.166Zm-.33-11.935h3.609V6.409h2.863v3.609H16.855v2.863H13.243V10.019H10.38V6.409h2.863V3.546ZM17.63,2.433H7a.38.38,0,0,0-.34.406V26.807a.382.382,0,0,0,.34.406H23.1a.378.378,0,0,0,.34-.406V2.839a.38.38,0,0,0-.34-.406H17.63Zm-1,19.246H13.467a.171.171,0,0,0-.171.171v3.731a.171.171,0,0,0,.171.171h3.164a.171.171,0,0,0,.171-.171V21.851a.169.169,0,0,0-.169-.171Zm5.215,0H18.772a.172.172,0,0,0-.171.174v3.731a.171.171,0,0,0,.171.171h3.079a.173.173,0,0,0,.174-.171V21.851a.18.18,0,0,0-.177-.174Zm0-6.185H18.772a.171.171,0,0,0-.171.171v3.731a.173.173,0,0,0,.171.174h3.079a.173.173,0,0,0,.174-.171V15.663a.177.177,0,0,0-.177-.171Zm-13.6,6.185h3.079a.172.172,0,0,1,.171.174v3.731a.173.173,0,0,1-.171.171H8.249a.173.173,0,0,1-.174-.171V21.851a.176.176,0,0,1,.174-.174Zm0-6.185h3.079a.171.171,0,0,1,.171.171v3.731a.175.175,0,0,1-.171.174H8.249a.173.173,0,0,1-.174-.171V15.663a.173.173,0,0,1,.174-.171Z" transform="translate(0 0)" fill="#088b81" fill-rule="evenodd"/>
</svg>
