<svg xmlns="http://www.w3.org/2000/svg" width="34.319" height="34.679" viewBox="0 0 34.319 34.679">
  <path id="Контур_6" data-name="Контур 6" d="M12.471,0h9.384a.435.435,0,0,1,.435.435V7.882l6.24-4.064a.436.436,0,0,1,.6.127l5.122,7.863a.436.436,0,0,1-.127.6l-7.71,5.024,7.609,5.176a.438.438,0,0,1,.116.6l-5.278,7.761a.438.438,0,0,1-.6.116l-5.969-4.061v7.216a.435.435,0,0,1-.435.435H12.471a.435.435,0,0,1-.435-.435V26.8L5.8,30.861a.436.436,0,0,1-.6-.127L.073,22.871a.436.436,0,0,1,.127-.6l7.71-5.024L.3,12.073a.438.438,0,0,1-.116-.6L5.463,3.708a.438.438,0,0,1,.6-.116l5.969,4.058V.435A.435.435,0,0,1,12.471,0Zm3.895,5.088a1.307,1.307,0,0,1,.669,2.43.528.528,0,0,1,.008.1V8.673a4.64,4.64,0,0,1,1.62.116c.243.068.494.1.7.181,3.841,1.417.57,3.745-1.561,1.964a1.71,1.71,0,0,1-.593-1.024.7.7,0,0,0-.164-.135v6.658c.957-.584,1.1-.931.556-3a3.024,3.024,0,0,1,1.626,1.738c.336,1.456-.449,2.094-1.428,2.611-.246.13-.5.248-.756.373v6.7c.189-.11.375-.223.556-.344V21.982A6.013,6.013,0,0,1,19.241,23.4a1.518,1.518,0,0,1-.694,1.877,2.371,2.371,0,0,1-.262.144c-.356.167-.785.367-1.247.587v3.356a.638.638,0,1,1-1.276,0V26.647a10.453,10.453,0,0,0-2.577,1.722c.234-1.408,1.335-2.128,2.577-2.811V18.923a2.31,2.31,0,0,0-.556,2.774c-1.2-.991-2.385-2.275-.813-3.528a15.752,15.752,0,0,1,1.369-.979V9.79a1.2,1.2,0,0,0-.548.686A1.4,1.4,0,0,0,15.3,11.7l-.1,1.722a7.209,7.209,0,0,1-.655-.409,1.755,1.755,0,0,1-.785-1.97A2.859,2.859,0,0,1,15.14,9.285a3.477,3.477,0,0,1,.545-.3l.082-.034V7.614a.342.342,0,0,1,0-.054,1.308,1.308,0,0,1,.6-2.472Z" transform="translate(-0.003)" fill="#0b8bb4" fill-rule="evenodd"/>
</svg>
